<?xml version="1.0" encoding="UTF-8" standalone="no"?>
<!-- Created with Inkscape (http://www.inkscape.org/) -->

<svg
   version="1.1"
   id="svg83"
   width="1333.3333"
   height="933.33331"
   viewBox="0 0 1333.3333 933.33331"
   sodipodi:docname="78787.svg"
   inkscape:version="1.2.2 (b0a84865, 2022-12-01)"
   xmlns:inkscape="http://www.inkscape.org/namespaces/inkscape"
   xmlns:sodipodi="http://sodipodi.sourceforge.net/DTD/sodipodi-0.dtd"
   xmlns="http://www.w3.org/2000/svg"
   xmlns:svg="http://www.w3.org/2000/svg">
  <defs
     id="defs87">
    <clipPath
       clipPathUnits="userSpaceOnUse"
       id="clipPath107">
      <path
         d="M 2399.74,3066.24 H 1750.4 V 4405.7 h -18.45 v 38.29 h 40.28 v 49 h 46.36 v 18.42 56.04 48.62 h 55.95 v 86.87 h 6.72 v 0 0 h 6.73 v -86.87 h 30.16 l 18.23,-48.62 h 122.06 v -74.46 h 319.48 v -49 h 40.27 v -38.29 h -18.45 V 3066.24"
         id="path105" />
    </clipPath>
    <linearGradient
       x1="0"
       y1="0"
       x2="1"
       y2="0"
       gradientUnits="userSpaceOnUse"
       gradientTransform="matrix(0,1636.7,1636.7,0,2075.07,3066.24)"
       spreadMethod="pad"
       id="linearGradient115">
      <stop
         style="stop-opacity:1;stop-color:#c5c5c5"
         offset="0"
         id="stop109" />
      <stop
         style="stop-opacity:1;stop-color:#d0d0d0"
         offset="0.28285263"
         id="stop111" />
      <stop
         style="stop-opacity:1;stop-color:#d0d0d0"
         offset="1"
         id="stop113" />
    </linearGradient>
    <clipPath
       clipPathUnits="userSpaceOnUse"
       id="clipPath125">
      <path
         d="m 1881.26,4702.94 v 0 c -6.67,0 -12.08,5.41 -12.08,12.08 0,6.68 5.41,12.09 12.08,12.09 6.68,0 12.09,-5.41 12.09,-12.09 0,-6.67 -5.41,-12.08 -12.09,-12.08 v 0"
         id="path123" />
    </clipPath>
    <linearGradient
       x1="0"
       y1="0"
       x2="1"
       y2="0"
       gradientUnits="userSpaceOnUse"
       gradientTransform="matrix(0,24.17,24.17,0,1881.27,4702.94)"
       spreadMethod="pad"
       id="linearGradient133">
      <stop
         style="stop-opacity:1;stop-color:#c5c5c5"
         offset="0"
         id="stop127" />
      <stop
         style="stop-opacity:1;stop-color:#d0d0d0"
         offset="0.28285263"
         id="stop129" />
      <stop
         style="stop-opacity:1;stop-color:#d0d0d0"
         offset="1"
         id="stop131" />
    </linearGradient>
    <clipPath
       clipPathUnits="userSpaceOnUse"
       id="clipPath143">
      <path
         d="M 9335.48,2785.84 H 842.906 v 201.98 H 2923.54 v 1481.04 h -10.78 v 17.12 h 76.78 v 102.91 h -9.92 v 16.48 h 70.47 v 59.16 h -11 v 12.65 h 35.02 v 55.89 h 33.48 v 111.22 h 4.02 3.99 3.14 v -111.22 h 13.54 v 199.51 h 4.02 3.99 3.14 v -199.51 h 4.5 28.97 v -55.89 h 30.34 v -12.65 h -6.32 v -59.16 h 70.48 v -16.48 h -9.93 v -102.91 h 76.78 v -17.12 h -10.77 V 2987.82 h 623.85 v 1112.59 h 61.42 v 665.79 h 71.65 v 439.89 h 138.72 v 240.63 h 19.52 v -240.63 h 42.98 v 192.23 h 19.52 v -192.23 h 219.42 v -261.56 h 39.82 V 4766.2 h 111.47 v -665.79 h 43.19 V 2987.82 h 2345.97 l -87.6,1966.73 799.49,-165.95 V 2987.82 h 1558.58 v -201.98"
         id="path141" />
    </clipPath>
    <linearGradient
       x1="0"
       y1="0"
       x2="1"
       y2="0"
       gradientUnits="userSpaceOnUse"
       gradientTransform="matrix(0,2660.89,2660.89,0,5089.19,2785.83)"
       spreadMethod="pad"
       id="linearGradient151">
      <stop
         style="stop-opacity:1;stop-color:#c5c5c5"
         offset="0"
         id="stop145" />
      <stop
         style="stop-opacity:1;stop-color:#d0d0d0"
         offset="0.28285263"
         id="stop147" />
      <stop
         style="stop-opacity:1;stop-color:#d0d0d0"
         offset="1"
         id="stop149" />
    </linearGradient>
    <clipPath
       clipPathUnits="userSpaceOnUse"
       id="clipPath161">
      <path
         d="m 6650.46,3463.64 c 16.91,-9.33 34.31,-17.71 52.1,-25.11 l -18.2,-44.34 c -4.14,1.31 -8.54,2.02 -13.1,2.02 -23.89,0 -43.24,-19.35 -43.24,-43.23 0,-23.89 19.35,-43.24 43.24,-43.24 23.88,0 43.23,19.35 43.23,43.24 0,17.62 -10.53,32.75 -25.65,39.5 l 18.16,44.23 c 56.86,-23.04 117.76,-36.14 180.57,-38.42 l -1.48,-45.34 c -23.4,-0.53 -42.23,-19.67 -42.23,-43.21 0,-23.89 19.35,-43.25 43.24,-43.25 23.88,0 43.23,19.36 43.23,43.25 0,22.59 -17.33,41.13 -39.43,43.06 l 1.47,45.34 c 4.96,-0.13 9.93,-0.2 14.91,-0.2 60.48,0 119.42,10.01 174.93,29.25 l 15.53,-44.08 c -14.71,-6.91 -24.91,-21.84 -24.91,-39.17 0,-23.88 19.37,-43.24 43.24,-43.24 23.88,0 43.25,19.36 43.25,43.24 0,23.88 -19.37,43.24 -43.25,43.24 -4.85,0 -9.51,-0.81 -13.86,-2.29 l -15.47,43.88 c 26.67,9.51 52.53,21.17 77.36,34.87 l 203.46,-375 h -920.55 z m -109.73,100.53 c -3.41,3.41 -6.76,6.87 -10.06,10.36 l 109.04,102.17 c 23.69,-24.94 50.82,-46.56 80.61,-64.14 l -71.35,-131.52 c -39.09,22.54 -75.47,50.37 -108.24,83.13 z m -13.35,13.86 c -46.8,50.31 -82.53,108.39 -105.96,171.24 l 140.32,51.66 c 16.98,-45.08 42.55,-85.98 74.7,-120.72 z m -138.47,352.68 c 0,4.83 0.07,9.64 0.2,14.45 l 149.17,-4.86 c -0.08,-3.18 -0.13,-6.38 -0.13,-9.59 0,-43.96 7.75,-86.14 21.91,-125.28 l -140.29,-51.65 c -20.29,55.97 -30.86,115.64 -30.86,176.93 z m 46.48,215.2 135.77,-62.68 c -19.3,-42.39 -30.81,-89.05 -32.69,-138.12 l -149.21,4.85 c 2.49,68.64 18.28,134.95 46.13,195.95 z m 105.34,151.35 c 3.42,3.41 6.88,6.76 10.36,10.06 l 102.18,-109.03 c -33.1,-31.44 -60.38,-68.95 -80.07,-110.71 l -135.79,62.69 c 25.24,53.93 59.96,103.63 103.32,146.99 z m 191.88,121.8 49.7,-141.02 c -46.98,-16.96 -89.57,-43.19 -125.53,-76.48 l -102.19,109.06 c 52.12,48.47 112.57,85.08 178.02,108.44 z m 174.67,30.02 c 4.82,0 9.63,-0.07 14.44,-0.2 l -4.85,-149.17 c -3.19,0.08 -6.38,0.12 -9.59,0.12 -42.15,0 -82.67,-7.12 -120.43,-20.19 l -49.7,141.01 c 53.99,18.7 111.31,28.43 170.13,28.43 z m 19.24,-0.34 c 61.07,-2.22 120.29,-14.96 175.56,-37.35 l -56.81,-138.33 c -38.43,15.54 -80.06,24.79 -123.6,26.47 z m 347.3,-151.48 c 3.42,-3.41 6.77,-6.87 10.07,-10.36 l -109.04,-102.17 c -35.03,36.87 -77.56,66.53 -125.13,86.51 l 56.8,138.33 c 61.79,-25.72 118.55,-63.56 167.3,-112.31 z m 13.37,-13.86 c 46.78,-50.31 82.52,-108.39 105.95,-171.24 l -140.32,-51.66 c -16.98,45.08 -42.55,85.98 -74.69,120.72 z m 138.45,-352.69 c 0,-4.82 -0.06,-9.63 -0.19,-14.44 l -149.17,4.85 c 0.08,3.19 0.12,6.39 0.12,9.59 0,43.97 -7.74,86.15 -21.91,125.29 l 140.31,51.65 c 20.27,-55.97 30.84,-115.64 30.84,-176.94 z m -46.47,-215.19 -135.77,62.68 c 19.31,42.39 30.8,89.04 32.69,138.12 l 149.21,-4.85 c -2.49,-68.65 -18.28,-134.96 -46.13,-195.95 z m -105.35,-151.35 c -3.41,-3.41 -6.87,-6.76 -10.35,-10.06 l -102.18,109.03 c 33.1,31.44 60.38,68.95 80.07,110.71 l 135.79,-62.69 c -25.25,-53.93 -59.96,-103.63 -103.33,-146.99 z m -241.57,19.22 c 18.62,6.72 36.54,14.9 53.65,24.4 l 71.33,-131.48 c -24.17,-13.33 -49.33,-24.68 -75.29,-33.94 z m -134.56,-21.67 c 3.19,-0.08 6.38,-0.13 9.59,-0.13 42.15,0 82.67,7.13 120.43,20.2 l 49.7,-141.01 c -53.99,-18.7 -111.31,-28.44 -170.13,-28.44 -4.83,0 -9.63,0.08 -14.44,0.21 z m -128.4,26.65 c 38.43,-15.54 80.07,-24.79 123.6,-26.47 l -4.85,-149.2 c -61.07,2.2 -120.29,14.96 -175.56,37.35 z m -40.63,19.42 c 11.69,-6.5 23.76,-12.38 36.18,-17.59 l -56.8,-138.33 c -17.32,7.2 -34.24,15.36 -50.71,24.44 z m 145.8,288.88 -150.7,-277.77 c -29.11,17.2 -55.63,38.35 -78.79,62.73 z m 6.46,21.78 c 0.78,-1.67 1.72,-3.25 2.79,-4.74 l -1.98,-3.65 -240.04,-224.92 c -31.49,34.04 -56.54,74.11 -73.19,118.28 z m -2.68,10.8 c 0.11,-2.17 0.46,-4.27 1.03,-6.29 l -312.44,-115.04 c -13.88,38.36 -21.47,79.71 -21.47,122.79 0,3.13 0.04,6.25 0.12,9.36 z m 1.72,11.43 c -0.77,-2.11 -1.29,-4.32 -1.55,-6.62 l -332.75,10.81 c 1.87,48.09 13.13,93.81 32.05,135.34 z m 5.76,9.53 c -1.43,-1.58 -2.68,-3.31 -3.74,-5.18 l -302.23,139.53 c 19.28,40.91 46.01,77.66 78.44,108.47 z m 9.67,7.03 c -2.22,-0.99 -4.29,-2.26 -6.16,-3.75 L 6661.7,4196.3 c 35.25,32.62 76.97,58.32 123.01,74.95 z m 10.43,2.51 c -2.03,-0.1 -4,-0.41 -5.91,-0.91 l -110.67,314.01 c 37.01,12.8 76.73,19.78 118.04,19.78 3.13,0 6.25,-0.04 9.36,-0.12 z m 10.24,-1.32 c -1.74,0.55 -3.57,0.94 -5.43,1.16 l 10.81,332.73 c 42.65,-1.64 83.43,-10.7 121.09,-25.93 z m 10.72,-6.15 c -1.89,1.7 -4,3.15 -6.27,4.32 l 126.47,307.97 c 46.61,-19.58 88.29,-48.64 122.62,-84.77 z m 6.86,-9.3 c -0.97,2.07 -2.18,4.01 -3.58,5.79 l 242.81,227.52 c 31.5,-34.04 56.54,-74.11 73.19,-118.28 z m 2.67,-10.81 c -0.11,2.18 -0.46,4.28 -1.02,6.3 l 312.44,115.04 c 13.88,-38.36 21.46,-79.71 21.46,-122.8 0,-3.12 -0.04,-6.24 -0.12,-9.35 z m -1.71,-11.42 c 0.76,2.1 1.29,4.32 1.55,6.62 l 332.75,-10.81 c -1.87,-48.09 -13.13,-93.81 -32.04,-135.34 z m 2.24,-18.06 -5.99,11.02 c 0.62,0.86 1.2,1.76 1.72,2.68 l 302.24,-139.52 c -19.29,-40.91 -46.01,-77.66 -78.44,-108.47 z m 9.05,-16.68 206.96,-220.88 c -18.92,-17.52 -39.72,-33.04 -62.05,-46.23 z m -26.71,18.18 c 1.59,0.72 3.11,1.57 4.53,2.54 l 158.75,-292.61 c -16.77,-9.32 -34.34,-17.34 -52.61,-23.94 z m -10.44,-2.51 c 2.03,0.1 4,0.41 5.91,0.91 l 110.67,-314.01 c -37.01,-12.8 -76.73,-19.78 -118.04,-19.78 -3.13,0 -6.24,0.04 -9.35,0.12 z m -141.16,-304.82 c -12.18,5.12 -24.02,10.89 -35.48,17.26 l 158.75,292.61 c 1.03,-0.7 2.09,-1.33 3.2,-1.9 z M 6898.5,3903 c 1.74,-0.55 3.56,-0.94 5.44,-1.16 l -10.81,-332.74 c -42.66,1.65 -83.44,10.71 -121.11,25.94 z m 267.1,-421.96 -71.36,131.52 c 22.87,13.49 44.16,29.38 63.54,47.31 l 102.19,-109.05 c -29.06,-27.04 -60.72,-50.37 -94.37,-69.78 z M 9182.78,2806 v 181.82 h -255.6 l -96.74,715.72 h -14.51 v 85.98 h -50.82 v -85.98 h -12.59 v 32.15 h -35.57 v -32.15 h -73.68 v 74.95 h -20.33 v 52.09 h -144.83 v -52.09 h -20.33 v -74.95 h -20.33 v -429.86 h -128.74 v 1090.69 h -42.34 v 239.19 h -13.56 v -239.19 h -32.18 v 331.81 h -13.55 v -331.81 h -27.95 v 179.6 h -13.55 v -179.6 h -249.86 v -774.19 h -277.8 v -501.54 h -259.43 l -206.02,379.72 c 34.73,20 67.38,44.06 97.35,71.94 l 42.25,-45.09 c -9.07,-7.92 -14.8,-19.57 -14.8,-32.56 0,-23.88 19.35,-43.24 43.23,-43.24 23.88,0 43.24,19.36 43.24,43.24 0,23.87 -19.36,43.24 -43.24,43.24 -9.15,0 -17.64,-2.85 -24.63,-7.71 l -42.55,45.41 c 3.6,3.41 7.17,6.87 10.69,10.39 44.58,44.58 80.29,95.68 106.23,151.14 l 47.05,-21.72 c -0.85,-3.39 -1.3,-6.94 -1.3,-10.59 0,-23.88 19.35,-43.24 43.23,-43.24 23.89,0 43.24,19.36 43.24,43.24 0,23.88 -19.35,43.24 -43.24,43.24 -18.53,0 -34.33,-11.66 -40.48,-28.03 l -46.47,21.46 c 28.65,62.73 44.88,130.92 47.44,201.53 l 50.64,-1.65 c 0.63,-23.34 19.73,-42.07 43.21,-42.07 23.88,0 43.25,19.36 43.25,43.24 0,23.88 -19.37,43.24 -43.25,43.24 -22.65,0 -41.23,-17.43 -43.07,-39.61 l -50.64,1.65 c 0.13,4.96 0.21,9.92 0.21,14.9 0,63.03 -10.87,124.38 -31.73,181.92 l 42.31,15.58 c 6.65,-15.33 21.91,-26.07 39.68,-26.07 23.88,0 43.24,19.36 43.24,43.24 0,23.88 -19.36,43.24 -43.24,43.24 -23.87,0 -43.24,-19.36 -43.24,-43.24 0,-4.4 0.66,-8.66 1.89,-12.67 l -42.29,-15.57 c -24.09,64.65 -60.85,124.37 -108.98,176.12 l 33.1,31.02 c 7.76,-7.41 18.27,-11.98 29.85,-11.98 23.88,0 43.25,19.36 43.25,43.24 0,23.88 -19.37,43.24 -43.25,43.24 -23.88,0 -43.24,-19.36 -43.24,-43.24 0,-10.57 3.8,-20.25 10.1,-27.76 l -33.11,-31.02 c -3.4,3.6 -6.87,7.17 -10.39,10.69 -50.11,50.12 -108.47,89.02 -172.01,115.46 l 18.21,44.33 c 4.14,-1.31 8.53,-2.03 13.09,-2.03 23.89,0 43.24,19.37 43.24,43.25 0,23.87 -19.35,43.23 -43.24,43.23 -23.88,0 -43.24,-19.36 -43.24,-43.23 0,-17.62 10.55,-32.77 25.66,-39.5 l -18.16,-44.24 c -56.86,23.04 -117.76,36.15 -180.57,38.42 l 1.97,60.6 1.37,-0.03 c 23.88,0 43.24,19.35 43.24,43.23 0,23.88 -19.36,43.24 -43.24,43.24 -23.87,0 -43.23,-19.36 -43.23,-43.24 0,-21.78 16.1,-39.8 37.07,-42.79 l -1.98,-60.86 c -4.96,0.13 -9.92,0.21 -14.91,0.21 -60.47,0 -119.42,-10.02 -174.93,-29.25 l -17.43,49.46 c 15.72,6.47 26.8,21.93 26.8,40 0,23.87 -19.36,43.23 -43.23,43.23 -23.89,0 -43.25,-19.36 -43.25,-43.23 0,-23.89 19.36,-43.25 43.25,-43.25 4.12,0 8.11,0.59 11.89,1.68 l 17.44,-49.48 C 6660.5,4408.64 6598.33,4371 6544.74,4321.13 l -31.6,33.72 c 7.07,7.7 11.39,17.96 11.39,29.24 0,23.88 -19.36,43.23 -43.24,43.23 -23.88,0 -43.23,-19.35 -43.23,-43.23 0,-23.88 19.35,-43.24 43.23,-43.24 10.88,0 20.81,4.02 28.41,10.65 l 31.54,-33.66 c -3.6,-3.41 -7.17,-6.87 -10.69,-10.39 -44.58,-44.58 -80.29,-95.68 -106.23,-151.14 l -40.16,18.54 c 1.46,4.32 2.26,8.95 2.26,13.77 0,23.88 -19.36,43.24 -43.24,43.24 -23.88,0 -43.24,-19.36 -43.24,-43.24 0,-23.88 19.36,-43.24 43.24,-43.24 17.36,0 32.32,10.24 39.2,25 l 39.91,-18.43 c -28.65,-62.73 -44.89,-130.92 -47.44,-201.53 l -51.54,1.68 c -0.63,23.32 -19.73,42.04 -43.2,42.04 -23.88,0 -43.24,-19.36 -43.24,-43.24 0,-23.88 19.36,-43.24 43.24,-43.24 22.66,0 41.25,17.44 43.07,39.63 l 51.53,-1.67 c -0.14,-4.96 -0.21,-9.93 -0.21,-14.91 0,-63.02 10.87,-124.37 31.73,-181.91 l -42.31,-15.58 c -6.64,15.33 -21.91,26.07 -39.68,26.07 -23.89,0 -43.24,-19.36 -43.24,-43.24 0,-23.88 19.35,-43.24 43.24,-43.24 23.88,0 43.24,19.36 43.24,43.24 0,4.4 -0.66,8.66 -1.89,12.66 l 42.29,15.57 c 24.09,-64.64 60.85,-124.36 108.99,-176.11 l -33.11,-31.02 c -7.76,7.42 -18.27,11.98 -29.85,11.98 -23.88,0 -43.25,-19.36 -43.25,-43.24 0,-23.88 19.37,-43.24 43.25,-43.24 23.87,0 43.24,19.36 43.24,43.24 0,10.57 -3.8,20.25 -10.1,27.76 l 33.11,31.02 c 3.4,-3.6 6.86,-7.17 10.39,-10.69 33.76,-33.76 71.25,-62.42 111.54,-85.62 l -206.02,-379.72 h -166.84 v 257.42 h -68.01 v 488.83 h 26.45 v 10.63 H 5643.2 v -10.63 h 26.45 v -246.52 h -57.3 l -54.66,-280.95 v 921.42 h -23.99 v 333.7 h -120.74 v 127.04 h -64.61 v 106.72 h -22.67 v 182.95 h -5.86 V 4796.3 h -22.66 v -106.72 h -64.6 v -127.04 h -119.84 v -333.7 h -24.9 V 3623 h -185.79 v -534.36 h -616.39 v 1033.22 h 49.55 v 16.26 h -49.55 v 29.11 h -62.79 v 47.81 h -513.54 v -47.81 h -62.79 v -29.11 h -49.55 v -16.26 h 49.55 v -643.19 h -84 v 120.69 h -518.19 v -147.38 h -112.98 v -274.41 h -182.94 v 896.93 h -60.98 v 60.99 h -48.28 v 161.34 h -10.17 v -161.34 h -22.86 v 202 h -10.16 v -202 h -28.11 v -60.99 h -15.09 v -896.93 h -378.59 v 525.97 h 17.78 v 35.57 h -116.88 v 96.55 h -55.9 v -96.55 h -50.82 v 96.55 h -50.81 v -96.55 h -98.86 v 96.55 h -302.6 v -96.55 h -70.66 v -35.57 h 40.17 v -198.19 h -111.8 v -447.21 h -153.46 v 119.43 H 1049.48 V 2917.13 H 842.906 V 2806 H 538.203 V 2487.51 H 9455.02 V 2806 Z"
         id="path159" />
    </clipPath>
    <linearGradient
       x1="0"
       y1="0"
       x2="1"
       y2="0"
       gradientUnits="userSpaceOnUse"
       gradientTransform="matrix(0,2491.74,2491.74,0,4996.61,2487.5)"
       spreadMethod="pad"
       id="linearGradient171">
      <stop
         style="stop-opacity:1;stop-color:#403e40"
         offset="0"
         id="stop163" />
      <stop
         style="stop-opacity:1;stop-color:#403e40"
         offset="0.0814704"
         id="stop165" />
      <stop
         style="stop-opacity:1;stop-color:#403e40"
         offset="0.5256509"
         id="stop167" />
      <stop
         style="stop-opacity:1;stop-color:#555455"
         offset="1"
         id="stop169" />
    </linearGradient>
    <clipPath
       clipPathUnits="userSpaceOnUse"
       id="clipPath181">
      <path
         d="m 8168.44,4136.29 c 0,6.67 -4.54,12.08 -10.14,12.08 -5.6,0 -10.15,-5.41 -10.15,-12.08 0,-6.68 4.55,-12.09 10.15,-12.09 5.6,0 10.14,5.41 10.14,12.09 z"
         id="path179" />
    </clipPath>
    <linearGradient
       x1="0"
       y1="0"
       x2="1"
       y2="0"
       gradientUnits="userSpaceOnUse"
       gradientTransform="matrix(0,-24.17,-24.17,0,8158.3,4148.37)"
       spreadMethod="pad"
       id="linearGradient189">
      <stop
         style="stop-opacity:1;stop-color:#403e40"
         offset="0"
         id="stop183" />
      <stop
         style="stop-opacity:1;stop-color:#403e40"
         offset="0.05639903"
         id="stop185" />
      <stop
         style="stop-opacity:1;stop-color:#161f21"
         offset="1"
         id="stop187" />
    </linearGradient>
    <clipPath
       clipPathUnits="userSpaceOnUse"
       id="clipPath199">
      <path
         d="m 9274.04,2667.59 -62.94,421.05 h -128.75 v 349.39 h 15.92 v 31.61 h -62.5 v 136.09 h -7.62 v -136.09 h -43.19 v 111.49 h -7.63 v -111.49 h -260.38 v -31.61 h 17.79 v -708.92 h -297.29 v 317.55 h -169.31 v 780.31 h 15.49 v 38.28 h -33.81 v 49.01 h -38.91 v 18.42 56.03 48.62 h -46.96 v 86.87 h -5.65 -5.64 v -86.87 h -25.32 l -15.31,-48.62 h -102.45 v -74.45 h -268.17 v -49.01 h -33.8 v -38.28 h 15.49 v -507.7 h -224.39 v -498.83 l -248.97,110.3 v 484.19 h 40.16 v 35.58 h -70.66 v 96.55 h -302.6 v -96.55 h -98.86 v 96.55 h -50.82 v -96.55 h -50.82 v 96.55 h -55.9 v -96.55 h -116.87 v -35.58 h 17.78 v -671.1 h -113.49 v 7.04 h -20.55 v 191.24 h 20.55 v 15.34 h -20.55 v 191.24 h 20.55 v 15.34 h -20.55 v 191.24 h 20.55 v 15.35 h -20.55 v 191.24 h 20.55 v 15.34 h -20.55 v 191.24 h 20.55 v 15.34 h -20.55 v 197.92 h 35.19 v 15.39 h 17.91 v 41.96 h -334.26 v 46.66 h 10.88 v 13.48 h -181.99 v -13.48 h 10.87 v -46.66 h -82.84 v -41.96 h 17.91 v -15.39 h 35.2 v -197.92 h -20.55 v -15.34 h 20.55 V 3577.2 h -20.55 v -15.34 h 20.55 v -191.24 h -20.55 v -15.35 h 20.55 v -191.24 h -20.55 v -15.34 h 20.55 v -191.24 h -20.55 v -15.34 h 20.55 v -191.24 h -20.55 v -15.34 h 20.55 v -156.27 h -114.09 v 603.88 h -459.07 v -439.31 h -74.53 v 1368.54 h -55.14 v -35.23 l -101.75,-24.89 v 22.88 h -55.14 v -36.37 l -101.76,-24.88 v 26.23 h -55.14 v -39.72 L 4837.6,3975.5 v 21.64 h -55.14 v -35.13 l -101.75,-24.89 v 18.65 h -55.14 V 2611.84 h -77.58 v 716.48 h -287.34 v -440.59 h -294.57 v 375.72 h -36.29 v 123.39 h 21.54 v 12.39 h -95.32 v 38.8 h -10.17 v -38.8 h -30.49 v 199.15 h -7.62 v -199.15 h -39.71 v -12.39 h 23.36 v -123.39 h -194.41 v -286.6 h -189.26 l -98.85,-365.01 h -198.33 v 1191.74 h -262.59 v 42.69 h 14.92 v 14.98 h -198.89 v -14.98 h 15.64 v -42.69 -68.66 -816.19 h -123.82 v 308.38 h 44.01 v 27.92 h -311.55 v 186.3 h -59.43 v 38.28 h -132.66 v -38.28 h -107.95 v -665.22 h -354.13 v 493.37 H 1335.89 V 2879.79 H 1077.12 V 2630.47 H 890.535 v 313.44 H 645.168 V 2676.67 H 423.012 v -189.16 h 222.156 75.082 122.656 47.629 186.585 258.77 86.96 46.56 164.67 354.13 107.95 132.66 59.43 232.42 35.12 123.82 207.64 102.29 120.99 486.44 112.34 189.64 67.13 299.6 80.5 279.39 27.56 27.58 101.75 55.14 101.76 46.09 9.05 101.76 55.14 87.47 14.28 27.57 27.57 74.53 379.45 54.2 25.42 114.09 200.85 183.86 86.42 134.04 332.9 352.01 3.68 248.97 139.21 85.18 53.79 416.64 74.61 89.21 80.1 297.29 221.05 45.26 81.3 494.63 v 180.08 z"
         id="path197" />
    </clipPath>
    <linearGradient
       x1="0"
       y1="0"
       x2="1"
       y2="0"
       gradientUnits="userSpaceOnUse"
       gradientTransform="matrix(0,-1636.7,-1636.7,0,5000,4124.2)"
       spreadMethod="pad"
       id="linearGradient207">
      <stop
         style="stop-opacity:1;stop-color:#403e40"
         offset="0"
         id="stop201" />
      <stop
         style="stop-opacity:1;stop-color:#403e40"
         offset="0.05639903"
         id="stop203" />
      <stop
         style="stop-opacity:1;stop-color:#161f21"
         offset="1"
         id="stop205" />
    </linearGradient>
  </defs>
  <sodipodi:namedview
     id="namedview85"
     pagecolor="#ffffff"
     bordercolor="#000000"
     borderopacity="0.25"
     inkscape:showpageshadow="2"
     inkscape:pageopacity="0.0"
     inkscape:pagecheckerboard="0"
     inkscape:deskcolor="#d1d1d1"
     showgrid="false"
     inkscape:zoom="0.25285715"
     inkscape:cx="670.33897"
     inkscape:cy="466.66666"
     inkscape:window-width="1419"
     inkscape:window-height="456"
     inkscape:window-x="0"
     inkscape:window-y="37"
     inkscape:window-maximized="0"
     inkscape:current-layer="g91">
    <inkscape:page
       x="0"
       y="0"
       id="page89"
       width="1333.3333"
       height="933.33331" />
  </sodipodi:namedview>
  <g
     id="g91"
     inkscape:groupmode="layer"
     inkscape:label="Page 1"
     transform="matrix(1.3333333,0,0,-1.3333333,0,933.33333)">
    <g
       id="g93"
       transform="scale(0.1)">
      <path
         d="M 0,0 H 10000 V 7000 H 0 Z"
         style="fill:#ffffff;fill-opacity:1;fill-rule:nonzero;stroke:none"
         id="path95" />
      <path
         d="m 1881.27,1426.67 c -6.67,0 -12.08,2.68 -12.08,6 0,3.31 5.41,5.98 12.08,5.98 v 0 c 6.67,0 12.09,-2.67 12.09,-5.98 0,-3.32 -5.42,-6 -12.09,-6"
         style="fill:#ebecee;fill-opacity:1;fill-rule:nonzero;stroke:none"
         id="path97" />
      <path
         d="m 4242.64,1070 h -19.52 v 119.27 h -138.71 v 218.03 h -71.65 v 273.18 h -303.44 v 23.69 h -62.8 v 14.43 h -49.54 v 8.06 h 49.54 v 318.8 h -83.99 v -59.83 h -235.05 v -430.95 h 10.78 v -8.49 h -76.78 v -51 h 9.92 v -8.18 h -70.47 v -29.32 h 6.32 v -6.26 h -30.34 v -27.71 h -28.97 -4.51 v -98.88 h -3.14 -3.99 -4.01 v 98.88 h -13.55 v -55.13 h -3.14 -3.98 -4.03 v 55.13 h -33.47 v 27.71 h -35.02 v 6.26 h 10.99 v 29.32 h -70.47 v 8.18 h 9.92 v 51 h -76.77 v 8.49 h 10.78 v 329.73 h -75.61 v -21.16 h 14.93 v -7.42 h -114.46 v -105.69 h -60.98 v -30.24 h -48.28 v -79.96 h -10.16 v 79.96 h -22.87 v -100.11 h -10.16 v 100.11 h -28.11 v 30.24 h -15.09 v 406.16 h -153.01 v -570.32 h 18.45 V 1567 h -40.28 v -24.28 h -319.48 v -36.91 h -122.06 l -18.23,-24.1 H 1888 v -43.06 h -6.73 -6.73 v 43.06 h -55.94 v 24.1 27.77 9.14 h -46.36 V 1567 h -40.28 v 18.98 h 18.45 v 282.54 h -234.33 v 47.85 h -70.66 V 1934 h 40.17 v 98.24 h -111.8 v 116.9 h -37.89 v 104.75 h -115.57 v -59.19 h -170.84 v 94.04 H 842.91 v 21.77 H 645.172 v 68.35 H 538.207 v 64.1 H 423.02 v 93.76 h 115.187 106.965 75.082 122.656 47.633 186.587 258.77 86.96 46.56 164.67 354.12 107.95 132.66 59.44 232.41 35.12 123.83 207.64 102.28 121 486.44 112.34 189.64 67.12 299.6 80.51 279.38 27.57 27.57 101.76 55.14 101.75 46.09 9.06 101.75 55.14 87.48 14.27 27.58 27.57 74.53 379.45 54.19 25.42 114.1 200.84 183.86 86.42 134.05 332.9 352.01 3.67 248.98 139.21 85.16 53.81 416.64 74.61 89.21 80.1 297.29 221.05 45.26 81.3 372.67 121.96 v -89.26 h -121.96 v -68.6 h -119.54 v -90.12 h -109.31 l -15.08,-49.97 H 9082.36 V 2065.6 h 15.92 v -15.67 h -62.5 v -67.45 h -7.63 v 67.45 h -43.19 v -55.26 h -7.62 v 55.26 H 8862.06 L 8830.45,1934 h -14.51 v -42.61 h -50.82 V 1934 h -12.59 v -15.93 h -35.58 V 1934 h -73.68 v -37.15 h -20.33 v -25.81 h -144.83 v 25.81 h -20.33 V 1934 h -20.32 v 213.06 h -128.74 v -540.6 h -42.35 v -118.55 h -13.55 v 118.55 h -32.19 V 1442 h -13.55 v 164.46 h -27.94 v -89.02 h -13.56 v 89.02 h -249.85 v 223.1 H 7776.9 v -433.37 l -799.49,-82.24 22.24,247.34 c -23.85,-2.05 -48.1,-3.34 -72.66,-3.78 l 1.97,-30.04 1.38,0.02 c 23.88,0 43.23,-9.59 43.23,-21.43 0,-11.83 -19.35,-21.43 -43.23,-21.43 -23.88,0 -43.24,9.6 -43.24,21.43 0,10.8 16.11,19.72 37.07,21.21 l -1.98,30.16 c -4.95,-0.07 -9.92,-0.1 -14.9,-0.1 -60.48,0 -119.42,4.96 -174.94,14.5 l -17.42,-24.52 c 15.72,-3.21 26.8,-10.87 26.8,-19.82 0,-11.84 -19.37,-21.43 -43.24,-21.43 -23.88,0 -43.25,9.59 -43.25,21.43 0,11.84 19.37,21.44 43.25,21.44 4.13,0 8.11,-0.3 11.9,-0.83 l 17.43,24.52 c -67.31,11.9 -129.48,30.55 -183.08,55.27 l -31.6,-16.71 c 7.08,-3.82 11.39,-8.9 11.39,-14.49 0,-11.84 -19.35,-21.43 -43.24,-21.43 -23.88,0 -43.23,9.59 -43.23,21.43 0,11.84 19.35,21.44 43.23,21.44 10.88,0 20.81,-2.01 28.41,-5.29 l 31.54,16.68 c -3.59,1.69 -7.17,3.41 -10.68,5.16 -44.59,22.1 -80.29,47.42 -106.24,74.91 l -40.15,-9.19 c 1.46,-2.15 2.25,-4.44 2.25,-6.82 0,-11.84 -19.36,-21.44 -43.24,-21.44 -23.87,0 -43.24,9.6 -43.24,21.44 0,11.83 19.37,21.42 43.24,21.42 17.36,0 32.33,-5.07 39.2,-12.39 l 39.93,9.14 c -16.46,17.84 -28.67,36.61 -36.69,55.96 h -239.66 v -23.13 h 10.87 v -6.68 h -181.98 v 6.68 h 10.87 v 23.13 h -82.84 v 20.8 h 17.9 v 7.62 h 35.21 v 67.5 H 5643.2 v 5.27 h 26.45 v 122.18 h -57.29 l -54.66,139.25 v -456.7 h -23.99 v -165.39 h -120.75 v -62.97 h -64.6 v -52.9 h -22.67 v -90.67 h -5.86 v 90.67 h -22.67 v 52.9 h -64.6 v 62.97 h -119.83 v 165.39 h -24.91 v 95.24 l -93.31,11.32 v -13.01 h -55.15 v 19.68 l -101.75,12.35 v -10.73 h -55.14 v 17.41 l -63.43,7.69 v -76.29 h -43.18 V 1407.3 h -111.47 v -88.39 h -39.83 v -129.64 h -219.41 v -95.28 h -19.52 v 95.28 h -42.99 V 1070 m 2544.21,578.46 -49.7,-69.9 c 53.99,-9.25 111.32,-14.09 170.14,-14.09 4.82,0 9.63,0.04 14.44,0.1 l -4.86,73.94 c -3.18,-0.04 -6.38,-0.06 -9.58,-0.06 -42.15,0 -82.68,3.52 -120.44,10.01 m 220.35,-3.05 c -27.4,-3.82 -55.97,-6.25 -85.52,-6.81 l 4.84,-73.95 c 24.96,0.45 49.58,1.82 73.78,3.97 l 6.9,76.79 m -350.41,41.75 -102.19,-54.05 c 52.12,-24.03 112.56,-42.17 178.02,-53.75 l 49.69,69.89 c -46.98,8.41 -89.56,21.4 -125.52,37.91 m -83.59,56.49 -135.79,-31.07 c 25.25,-26.73 59.97,-51.36 103.33,-72.85 3.41,-1.69 6.87,-3.35 10.35,-4.99 l 102.18,54.04 c -33.1,15.59 -60.37,34.17 -80.07,54.87 m 326.72,63.81 -110.67,-155.63 c 37.01,-6.35 76.73,-9.81 118.04,-9.81 3.12,0 6.24,0.02 9.35,0.06 l -10.82,164.93 c -2.03,0.05 -4,0.21 -5.9,0.45 m 16.15,0.21 c -1.75,-0.28 -3.57,-0.47 -5.44,-0.58 l 10.81,-164.92 c 29.78,0.57 58.57,3.04 86.1,6.98 l 3.89,43.41 -95.36,115.11 m -26.84,2.44 -227.52,-120.34 c 35.24,-16.17 76.97,-28.91 123.01,-37.15 l 110.67,155.63 c -2.22,0.5 -4.28,1.12 -6.16,1.86 m -7.24,4.2 -302.24,-69.16 c 19.29,-20.28 46.02,-38.49 78.44,-53.76 l 227.53,120.35 c -1.42,0.78 -2.67,1.64 -3.73,2.57 m 44.79,-3.6 c -1.88,-0.84 -3.99,-1.56 -6.26,-2.14 l 91.42,-110.36 6.3,70.03 -91.46,42.47 m -526.43,-43 c 7.8,-18.31 19.46,-36.06 35.05,-52.96 l 135.77,31.06 c -19.3,21.01 -30.81,44.13 -32.69,68.46 l -111.37,-1.8 v -16.34 h 35.2 v -7.62 h 17.91 v -20.8 h -79.87 m 478.06,52.04 -332.74,-5.37 c 1.86,-23.83 13.13,-46.49 32.04,-67.07 l 302.26,69.15 c -0.77,1.05 -1.29,2.14 -1.56,3.29 m 55.23,-4.43 c -0.96,-1.02 -2.17,-1.99 -3.58,-2.87 l 88.46,-41.08 2.52,28 -87.4,15.95 m 89.43,6.76 -86.75,-1.41 c -0.11,-1.07 -0.46,-2.11 -1.02,-3.11 l 85.96,-15.69 1.81,20.21 m -595.96,72.15 v -79.37 l 111.17,1.79 c -0.08,1.57 -0.12,3.16 -0.12,4.75 0,21.79 7.74,42.7 21.91,62.1 l -132.96,24.25 v -5.92 h 20.55 v -7.6 h -20.55 m 139.72,-11.96 c -13.88,-19.02 -21.46,-39.51 -21.46,-60.87 0,-1.55 0.04,-3.1 0.12,-4.64 l 332.76,5.37 c 0.11,1.07 0.46,2.11 1.02,3.11 l -312.44,57.03 m 458.49,-35.17 -90.72,-20.76 c 0.77,-1.04 1.3,-2.14 1.55,-3.28 l 87.14,1.4 2.03,22.64 m -383.62,96.02 c -31.5,-16.87 -56.54,-36.73 -73.19,-58.63 l 312.42,-57.01 c 0.78,0.83 1.72,1.61 2.78,2.35 l -1.98,1.81 -240.03,111.48 m 386.92,-59.27 -91.78,-48.56 -5.98,-5.46 1.72,-1.32 92.99,21.26 3.05,34.08 m 1.23,106.34 -110.67,-155.64 c 1.59,-0.36 3.11,-0.78 4.53,-1.26 l 109.36,99.89 4.97,55.36 c -2.76,0.52 -5.4,1.15 -8.19,1.65 m -262.26,-3.31 c -12.19,-2.54 -24.03,-5.4 -35.49,-8.56 l 158.76,-145.03 c 1.02,0.34 2.09,0.66 3.2,0.94 l -126.47,152.65 m 125.53,13.75 c -42.65,-0.81 -83.43,-5.31 -121.09,-12.86 l 126.47,-152.63 c 1.74,0.27 3.57,0.47 5.45,0.57 l -10.83,164.92 m 14.17,0.15 c -3.13,0 -6.26,-0.02 -9.36,-0.06 l 10.81,-164.93 c 2.03,-0.05 4.01,-0.2 5.91,-0.45 l 110.67,155.64 c -37.01,6.34 -76.72,9.8 -118.03,9.8 m -183.52,-24.83 c -29.12,-8.53 -55.64,-19.01 -78.8,-31.09 l 229.5,-106.59 -150.7,137.68 m 308.31,-53.64 -86.19,-78.75 83.07,43.94 3.12,34.81 m -504.7,73.9 c -43.23,-23.05 -76.89,-49.39 -100.27,-77.84 v -8.08 l 134.63,-24.57 c 16.99,22.36 42.55,42.62 74.7,59.84 l -109.06,50.65 m -100.27,0.41 v -60.56 c 22.92,23.53 52.99,45.44 89.76,65.03 l -33.1,15.38 c -7.76,-3.68 -18.28,-5.93 -29.85,-5.93 -10.19,0 -19.42,1.81 -26.81,4.72 v -11.04 h 20.55 v -7.6 h -20.55 m 221.87,47.66 c -39.1,-11.17 -75.47,-24.96 -108.24,-41.2 -3.41,-1.69 -6.77,-3.41 -10.07,-5.14 l 109.05,-50.64 c 23.68,12.36 50.81,23.08 80.61,31.79 l -35.55,32.47 h -24.53 v 22.41 l -11.27,10.31 m 46.74,-32.72 32.95,-30.1 c 11.69,3.22 23.76,6.13 36.18,8.72 l -48.7,58.78 v -37.4 h -20.43 m 20.43,47.85 v -4.19 l 53.15,-64.14 c 38.42,7.71 80.05,12.29 123.59,13.12 l -3.62,55.21 h -71.49 v -47.85 h -50.81 v 47.85 h -50.82 m 323.25,-55.82 -7.15,-10.04 c 2.09,-0.37 4.06,-0.84 6.13,-1.23 l 1.02,11.27 m -132.11,0.76 c 42.14,0 82.66,-3.53 120.43,-10 l 12.24,17.21 h -123.32 v 47.85 h -22.56 l 3.62,-55.11 c 3.18,0.04 6.38,0.05 9.59,0.05 m -453.37,49.05 c 23.87,0 43.23,-9.6 43.23,-21.44 0,-5.23 -3.8,-10.04 -10.1,-13.76 l 33.11,-15.38 c 3.41,1.79 6.87,3.56 10.4,5.3 33.76,16.73 71.25,30.94 111.54,42.45 l -9.7,8.84 h -89.03 v 17.63 h 17.79 v 47.46 l -125.08,114.27 h -8.97 V 2209 h 20.55 v -7.59 h -20.55 v -94.8 h 20.55 v -7.6 h -20.55 v -50.35 c 7.39,2.92 16.62,4.74 26.81,4.74 m 206.33,-6.04 c -0.95,-0.25 -1.95,-0.48 -2.91,-0.74 l 2.91,-2.65 v 3.39 m -16.92,12.05 7.13,-6.51 c 3.22,0.88 6.54,1.66 9.79,2.51 v 4 h -16.92 m -196.32,179.36 114.15,-104.28 v 104.28 h -114.15"
         style="fill:#ebecee;fill-opacity:1;fill-rule:nonzero;stroke:none"
         id="path99" />
      <g
         id="g101">
        <g
           id="g103"
           clip-path="url(#clipPath107)">
          <path
             d="M 2399.74,3066.24 H 1750.4 V 4405.7 h -18.45 v 38.29 h 40.28 v 49 h 46.36 v 18.42 56.04 48.62 h 55.95 v 86.87 h 6.72 v 0 0 h 6.73 v -86.87 h 30.16 l 18.23,-48.62 h 122.06 v -74.46 h 319.48 v -49 h 40.27 v -38.29 h -18.45 V 3066.24"
             style="fill:url(#linearGradient115);fill-opacity:1;fill-rule:nonzero;stroke:none"
             id="path117" />
        </g>
      </g>
      <g
         id="g119">
        <g
           id="g121"
           clip-path="url(#clipPath125)">
          <path
             d="m 1881.26,4702.94 v 0 c -6.67,0 -12.08,5.41 -12.08,12.08 0,6.68 5.41,12.09 12.08,12.09 6.68,0 12.09,-5.41 12.09,-12.09 0,-6.67 -5.41,-12.08 -12.09,-12.08 v 0"
             style="fill:url(#linearGradient133);fill-opacity:1;fill-rule:nonzero;stroke:none"
             id="path135" />
        </g>
      </g>
      <g
         id="g137">
        <g
           id="g139"
           clip-path="url(#clipPath143)">
          <path
             d="M 9335.48,2785.84 H 842.906 v 201.98 H 2923.54 v 1481.04 h -10.78 v 17.12 h 76.78 v 102.91 h -9.92 v 16.48 h 70.47 v 59.16 h -11 v 12.65 h 35.02 v 55.89 h 33.48 v 111.22 h 4.02 3.99 3.14 v -111.22 h 13.54 v 199.51 h 4.02 3.99 3.14 v -199.51 h 4.5 28.97 v -55.89 h 30.34 v -12.65 h -6.32 v -59.16 h 70.48 v -16.48 h -9.93 v -102.91 h 76.78 v -17.12 h -10.77 V 2987.82 h 623.85 v 1112.59 h 61.42 v 665.79 h 71.65 v 439.89 h 138.72 v 240.63 h 19.52 v -240.63 h 42.98 v 192.23 h 19.52 v -192.23 h 219.42 v -261.56 h 39.82 V 4766.2 h 111.47 v -665.79 h 43.19 V 2987.82 h 2345.97 l -87.6,1966.73 799.49,-165.95 V 2987.82 h 1558.58 v -201.98"
             style="fill:url(#linearGradient151);fill-opacity:1;fill-rule:nonzero;stroke:none"
             id="path153" />
        </g>
      </g>
      <g
         id="g155">
        <g
           id="g157"
           clip-path="url(#clipPath161)">
          <path
             d="m 6650.46,3463.64 c 16.91,-9.33 34.31,-17.71 52.1,-25.11 l -18.2,-44.34 c -4.14,1.31 -8.54,2.02 -13.1,2.02 -23.89,0 -43.24,-19.35 -43.24,-43.23 0,-23.89 19.35,-43.24 43.24,-43.24 23.88,0 43.23,19.35 43.23,43.24 0,17.62 -10.53,32.75 -25.65,39.5 l 18.16,44.23 c 56.86,-23.04 117.76,-36.14 180.57,-38.42 l -1.48,-45.34 c -23.4,-0.53 -42.23,-19.67 -42.23,-43.21 0,-23.89 19.35,-43.25 43.24,-43.25 23.88,0 43.23,19.36 43.23,43.25 0,22.59 -17.33,41.13 -39.43,43.06 l 1.47,45.34 c 4.96,-0.13 9.93,-0.2 14.91,-0.2 60.48,0 119.42,10.01 174.93,29.25 l 15.53,-44.08 c -14.71,-6.91 -24.91,-21.84 -24.91,-39.17 0,-23.88 19.37,-43.24 43.24,-43.24 23.88,0 43.25,19.36 43.25,43.24 0,23.88 -19.37,43.24 -43.25,43.24 -4.85,0 -9.51,-0.81 -13.86,-2.29 l -15.47,43.88 c 26.67,9.51 52.53,21.17 77.36,34.87 l 203.46,-375 h -920.55 z m -109.73,100.53 c -3.41,3.41 -6.76,6.87 -10.06,10.36 l 109.04,102.17 c 23.69,-24.94 50.82,-46.56 80.61,-64.14 l -71.35,-131.52 c -39.09,22.54 -75.47,50.37 -108.24,83.13 z m -13.35,13.86 c -46.8,50.31 -82.53,108.39 -105.96,171.24 l 140.32,51.66 c 16.98,-45.08 42.55,-85.98 74.7,-120.72 z m -138.47,352.68 c 0,4.83 0.07,9.64 0.2,14.45 l 149.17,-4.86 c -0.08,-3.18 -0.13,-6.38 -0.13,-9.59 0,-43.96 7.75,-86.14 21.91,-125.28 l -140.29,-51.65 c -20.29,55.97 -30.86,115.64 -30.86,176.93 z m 46.48,215.2 135.77,-62.68 c -19.3,-42.39 -30.81,-89.05 -32.69,-138.12 l -149.21,4.85 c 2.49,68.64 18.28,134.95 46.13,195.95 z m 105.34,151.35 c 3.42,3.41 6.88,6.76 10.36,10.06 l 102.18,-109.03 c -33.1,-31.44 -60.38,-68.95 -80.07,-110.71 l -135.79,62.69 c 25.24,53.93 59.96,103.63 103.32,146.99 z m 191.88,121.8 49.7,-141.02 c -46.98,-16.96 -89.57,-43.19 -125.53,-76.48 l -102.19,109.06 c 52.12,48.47 112.57,85.08 178.02,108.44 z m 174.67,30.02 c 4.82,0 9.63,-0.07 14.44,-0.2 l -4.85,-149.17 c -3.19,0.08 -6.38,0.12 -9.59,0.12 -42.15,0 -82.67,-7.12 -120.43,-20.19 l -49.7,141.01 c 53.99,18.7 111.31,28.43 170.13,28.43 z m 19.24,-0.34 c 61.07,-2.22 120.29,-14.96 175.56,-37.35 l -56.81,-138.33 c -38.43,15.54 -80.06,24.79 -123.6,26.47 z m 347.3,-151.48 c 3.42,-3.41 6.77,-6.87 10.07,-10.36 l -109.04,-102.17 c -35.03,36.87 -77.56,66.53 -125.13,86.51 l 56.8,138.33 c 61.79,-25.72 118.55,-63.56 167.3,-112.31 z m 13.37,-13.86 c 46.78,-50.31 82.52,-108.39 105.95,-171.24 l -140.32,-51.66 c -16.98,45.08 -42.55,85.98 -74.69,120.72 z m 138.45,-352.69 c 0,-4.82 -0.06,-9.63 -0.19,-14.44 l -149.17,4.85 c 0.08,3.19 0.12,6.39 0.12,9.59 0,43.97 -7.74,86.15 -21.91,125.29 l 140.31,51.65 c 20.27,-55.97 30.84,-115.64 30.84,-176.94 z m -46.47,-215.19 -135.77,62.68 c 19.31,42.39 30.8,89.04 32.69,138.12 l 149.21,-4.85 c -2.49,-68.65 -18.28,-134.96 -46.13,-195.95 z m -105.35,-151.35 c -3.41,-3.41 -6.87,-6.76 -10.35,-10.06 l -102.18,109.03 c 33.1,31.44 60.38,68.95 80.07,110.71 l 135.79,-62.69 c -25.25,-53.93 -59.96,-103.63 -103.33,-146.99 z m -241.57,19.22 c 18.62,6.72 36.54,14.9 53.65,24.4 l 71.33,-131.48 c -24.17,-13.33 -49.33,-24.68 -75.29,-33.94 z m -134.56,-21.67 c 3.19,-0.08 6.38,-0.13 9.59,-0.13 42.15,0 82.67,7.13 120.43,20.2 l 49.7,-141.01 c -53.99,-18.7 -111.31,-28.44 -170.13,-28.44 -4.83,0 -9.63,0.08 -14.44,0.21 z m -128.4,26.65 c 38.43,-15.54 80.07,-24.79 123.6,-26.47 l -4.85,-149.2 c -61.07,2.2 -120.29,14.96 -175.56,37.35 z m -40.63,19.42 c 11.69,-6.5 23.76,-12.38 36.18,-17.59 l -56.8,-138.33 c -17.32,7.2 -34.24,15.36 -50.71,24.44 z m 145.8,288.88 -150.7,-277.77 c -29.11,17.2 -55.63,38.35 -78.79,62.73 z m 6.46,21.78 c 0.78,-1.67 1.72,-3.25 2.79,-4.74 l -1.98,-3.65 -240.04,-224.92 c -31.49,34.04 -56.54,74.11 -73.19,118.28 z m -2.68,10.8 c 0.11,-2.17 0.46,-4.27 1.03,-6.29 l -312.44,-115.04 c -13.88,38.36 -21.47,79.71 -21.47,122.79 0,3.13 0.04,6.25 0.12,9.36 z m 1.72,11.43 c -0.77,-2.11 -1.29,-4.32 -1.55,-6.62 l -332.75,10.81 c 1.87,48.09 13.13,93.81 32.05,135.34 z m 5.76,9.53 c -1.43,-1.58 -2.68,-3.31 -3.74,-5.18 l -302.23,139.53 c 19.28,40.91 46.01,77.66 78.44,108.47 z m 9.67,7.03 c -2.22,-0.99 -4.29,-2.26 -6.16,-3.75 L 6661.7,4196.3 c 35.25,32.62 76.97,58.32 123.01,74.95 z m 10.43,2.51 c -2.03,-0.1 -4,-0.41 -5.91,-0.91 l -110.67,314.01 c 37.01,12.8 76.73,19.78 118.04,19.78 3.13,0 6.25,-0.04 9.36,-0.12 z m 10.24,-1.32 c -1.74,0.55 -3.57,0.94 -5.43,1.16 l 10.81,332.73 c 42.65,-1.64 83.43,-10.7 121.09,-25.93 z m 10.72,-6.15 c -1.89,1.7 -4,3.15 -6.27,4.32 l 126.47,307.97 c 46.61,-19.58 88.29,-48.64 122.62,-84.77 z m 6.86,-9.3 c -0.97,2.07 -2.18,4.01 -3.58,5.79 l 242.81,227.52 c 31.5,-34.04 56.54,-74.11 73.19,-118.28 z m 2.67,-10.81 c -0.11,2.18 -0.46,4.28 -1.02,6.3 l 312.44,115.04 c 13.88,-38.36 21.46,-79.71 21.46,-122.8 0,-3.12 -0.04,-6.24 -0.12,-9.35 z m -1.71,-11.42 c 0.76,2.1 1.29,4.32 1.55,6.62 l 332.75,-10.81 c -1.87,-48.09 -13.13,-93.81 -32.04,-135.34 z m 2.24,-18.06 -5.99,11.02 c 0.62,0.86 1.2,1.76 1.72,2.68 l 302.24,-139.52 c -19.29,-40.91 -46.01,-77.66 -78.44,-108.47 z m 9.05,-16.68 206.96,-220.88 c -18.92,-17.52 -39.72,-33.04 -62.05,-46.23 z m -26.71,18.18 c 1.59,0.72 3.11,1.57 4.53,2.54 l 158.75,-292.61 c -16.77,-9.32 -34.34,-17.34 -52.61,-23.94 z m -10.44,-2.51 c 2.03,0.1 4,0.41 5.91,0.91 l 110.67,-314.01 c -37.01,-12.8 -76.73,-19.78 -118.04,-19.78 -3.13,0 -6.24,0.04 -9.35,0.12 z m -141.16,-304.82 c -12.18,5.12 -24.02,10.89 -35.48,17.26 l 158.75,292.61 c 1.03,-0.7 2.09,-1.33 3.2,-1.9 z M 6898.5,3903 c 1.74,-0.55 3.56,-0.94 5.44,-1.16 l -10.81,-332.74 c -42.66,1.65 -83.44,10.71 -121.11,25.94 z m 267.1,-421.96 -71.36,131.52 c 22.87,13.49 44.16,29.38 63.54,47.31 l 102.19,-109.05 c -29.06,-27.04 -60.72,-50.37 -94.37,-69.78 z M 9182.78,2806 v 181.82 h -255.6 l -96.74,715.72 h -14.51 v 85.98 h -50.82 v -85.98 h -12.59 v 32.15 h -35.57 v -32.15 h -73.68 v 74.95 h -20.33 v 52.09 h -144.83 v -52.09 h -20.33 v -74.95 h -20.33 v -429.86 h -128.74 v 1090.69 h -42.34 v 239.19 h -13.56 v -239.19 h -32.18 v 331.81 h -13.55 v -331.81 h -27.95 v 179.6 h -13.55 v -179.6 h -249.86 v -774.19 h -277.8 v -501.54 h -259.43 l -206.02,379.72 c 34.73,20 67.38,44.06 97.35,71.94 l 42.25,-45.09 c -9.07,-7.92 -14.8,-19.57 -14.8,-32.56 0,-23.88 19.35,-43.24 43.23,-43.24 23.88,0 43.24,19.36 43.24,43.24 0,23.87 -19.36,43.24 -43.24,43.24 -9.15,0 -17.64,-2.85 -24.63,-7.71 l -42.55,45.41 c 3.6,3.41 7.17,6.87 10.69,10.39 44.58,44.58 80.29,95.68 106.23,151.14 l 47.05,-21.72 c -0.85,-3.39 -1.3,-6.94 -1.3,-10.59 0,-23.88 19.35,-43.24 43.23,-43.24 23.89,0 43.24,19.36 43.24,43.24 0,23.88 -19.35,43.24 -43.24,43.24 -18.53,0 -34.33,-11.66 -40.48,-28.03 l -46.47,21.46 c 28.65,62.73 44.88,130.92 47.44,201.53 l 50.64,-1.65 c 0.63,-23.34 19.73,-42.07 43.21,-42.07 23.88,0 43.25,19.36 43.25,43.24 0,23.88 -19.37,43.24 -43.25,43.24 -22.65,0 -41.23,-17.43 -43.07,-39.61 l -50.64,1.65 c 0.13,4.96 0.21,9.92 0.21,14.9 0,63.03 -10.87,124.38 -31.73,181.92 l 42.31,15.58 c 6.65,-15.33 21.91,-26.07 39.68,-26.07 23.88,0 43.24,19.36 43.24,43.24 0,23.88 -19.36,43.24 -43.24,43.24 -23.87,0 -43.24,-19.36 -43.24,-43.24 0,-4.4 0.66,-8.66 1.89,-12.67 l -42.29,-15.57 c -24.09,64.65 -60.85,124.37 -108.98,176.12 l 33.1,31.02 c 7.76,-7.41 18.27,-11.98 29.85,-11.98 23.88,0 43.25,19.36 43.25,43.24 0,23.88 -19.37,43.24 -43.25,43.24 -23.88,0 -43.24,-19.36 -43.24,-43.24 0,-10.57 3.8,-20.25 10.1,-27.76 l -33.11,-31.02 c -3.4,3.6 -6.87,7.17 -10.39,10.69 -50.11,50.12 -108.47,89.02 -172.01,115.46 l 18.21,44.33 c 4.14,-1.31 8.53,-2.03 13.09,-2.03 23.89,0 43.24,19.37 43.24,43.25 0,23.87 -19.35,43.23 -43.24,43.23 -23.88,0 -43.24,-19.36 -43.24,-43.23 0,-17.62 10.55,-32.77 25.66,-39.5 l -18.16,-44.24 c -56.86,23.04 -117.76,36.15 -180.57,38.42 l 1.97,60.6 1.37,-0.03 c 23.88,0 43.24,19.35 43.24,43.23 0,23.88 -19.36,43.24 -43.24,43.24 -23.87,0 -43.23,-19.36 -43.23,-43.24 0,-21.78 16.1,-39.8 37.07,-42.79 l -1.98,-60.86 c -4.96,0.13 -9.92,0.21 -14.91,0.21 -60.47,0 -119.42,-10.02 -174.93,-29.25 l -17.43,49.46 c 15.72,6.47 26.8,21.93 26.8,40 0,23.87 -19.36,43.23 -43.23,43.23 -23.89,0 -43.25,-19.36 -43.25,-43.23 0,-23.89 19.36,-43.25 43.25,-43.25 4.12,0 8.11,0.59 11.89,1.68 l 17.44,-49.48 C 6660.5,4408.64 6598.33,4371 6544.74,4321.13 l -31.6,33.72 c 7.07,7.7 11.39,17.96 11.39,29.24 0,23.88 -19.36,43.23 -43.24,43.23 -23.88,0 -43.23,-19.35 -43.23,-43.23 0,-23.88 19.35,-43.24 43.23,-43.24 10.88,0 20.81,4.02 28.41,10.65 l 31.54,-33.66 c -3.6,-3.41 -7.17,-6.87 -10.69,-10.39 -44.58,-44.58 -80.29,-95.68 -106.23,-151.14 l -40.16,18.54 c 1.46,4.32 2.26,8.95 2.26,13.77 0,23.88 -19.36,43.24 -43.24,43.24 -23.88,0 -43.24,-19.36 -43.24,-43.24 0,-23.88 19.36,-43.24 43.24,-43.24 17.36,0 32.32,10.24 39.2,25 l 39.91,-18.43 c -28.65,-62.73 -44.89,-130.92 -47.44,-201.53 l -51.54,1.68 c -0.63,23.32 -19.73,42.04 -43.2,42.04 -23.88,0 -43.24,-19.36 -43.24,-43.24 0,-23.88 19.36,-43.24 43.24,-43.24 22.66,0 41.25,17.44 43.07,39.63 l 51.53,-1.67 c -0.14,-4.96 -0.21,-9.93 -0.21,-14.91 0,-63.02 10.87,-124.37 31.73,-181.91 l -42.31,-15.58 c -6.64,15.33 -21.91,26.07 -39.68,26.07 -23.89,0 -43.24,-19.36 -43.24,-43.24 0,-23.88 19.35,-43.24 43.24,-43.24 23.88,0 43.24,19.36 43.24,43.24 0,4.4 -0.66,8.66 -1.89,12.66 l 42.29,15.57 c 24.09,-64.64 60.85,-124.36 108.99,-176.11 l -33.11,-31.02 c -7.76,7.42 -18.27,11.98 -29.85,11.98 -23.88,0 -43.25,-19.36 -43.25,-43.24 0,-23.88 19.37,-43.24 43.25,-43.24 23.87,0 43.24,19.36 43.24,43.24 0,10.57 -3.8,20.25 -10.1,27.76 l 33.11,31.02 c 3.4,-3.6 6.86,-7.17 10.39,-10.69 33.76,-33.76 71.25,-62.42 111.54,-85.62 l -206.02,-379.72 h -166.84 v 257.42 h -68.01 v 488.83 h 26.45 v 10.63 H 5643.2 v -10.63 h 26.45 v -246.52 h -57.3 l -54.66,-280.95 v 921.42 h -23.99 v 333.7 h -120.74 v 127.04 h -64.61 v 106.72 h -22.67 v 182.95 h -5.86 V 4796.3 h -22.66 v -106.72 h -64.6 v -127.04 h -119.84 v -333.7 h -24.9 V 3623 h -185.79 v -534.36 h -616.39 v 1033.22 h 49.55 v 16.26 h -49.55 v 29.11 h -62.79 v 47.81 h -513.54 v -47.81 h -62.79 v -29.11 h -49.55 v -16.26 h 49.55 v -643.19 h -84 v 120.69 h -518.19 v -147.38 h -112.98 v -274.41 h -182.94 v 896.93 h -60.98 v 60.99 h -48.28 v 161.34 h -10.17 v -161.34 h -22.86 v 202 h -10.16 v -202 h -28.11 v -60.99 h -15.09 v -896.93 h -378.59 v 525.97 h 17.78 v 35.57 h -116.88 v 96.55 h -55.9 v -96.55 h -50.82 v 96.55 h -50.81 v -96.55 h -98.86 v 96.55 h -302.6 v -96.55 h -70.66 v -35.57 h 40.17 v -198.19 h -111.8 v -447.21 h -153.46 v 119.43 H 1049.48 V 2917.13 H 842.906 V 2806 H 538.203 V 2487.51 H 9455.02 V 2806 h -272.24"
             style="fill:url(#linearGradient171);fill-opacity:1;fill-rule:nonzero;stroke:none"
             id="path173" />
        </g>
      </g>
      <g
         id="g175">
        <g
           id="g177"
           clip-path="url(#clipPath181)">
          <path
             d="m 8168.44,4136.29 c 0,6.67 -4.54,12.08 -10.14,12.08 -5.6,0 -10.15,-5.41 -10.15,-12.08 0,-6.68 4.55,-12.09 10.15,-12.09 5.6,0 10.14,5.41 10.14,12.09"
             style="fill:url(#linearGradient189);fill-opacity:1;fill-rule:nonzero;stroke:none"
             id="path191" />
        </g>
      </g>
      <g
         id="g193">
        <g
           id="g195"
           clip-path="url(#clipPath199)">
          <path
             d="m 9274.04,2667.59 -62.94,421.05 h -128.75 v 349.39 h 15.92 v 31.61 h -62.5 v 136.09 h -7.62 v -136.09 h -43.19 v 111.49 h -7.63 v -111.49 h -260.38 v -31.61 h 17.79 v -708.92 h -297.29 v 317.55 h -169.31 v 780.31 h 15.49 v 38.28 h -33.81 v 49.01 h -38.91 v 18.42 56.03 48.62 h -46.96 v 86.87 h -5.65 -5.64 v -86.87 h -25.32 l -15.31,-48.62 h -102.45 v -74.45 h -268.17 v -49.01 h -33.8 v -38.28 h 15.49 v -507.7 h -224.39 v -498.83 l -248.97,110.3 v 484.19 h 40.16 v 35.58 h -70.66 v 96.55 h -302.6 v -96.55 h -98.86 v 96.55 h -50.82 v -96.55 h -50.82 v 96.55 h -55.9 v -96.55 h -116.87 v -35.58 h 17.78 v -671.1 h -113.49 v 7.04 h -20.55 v 191.24 h 20.55 v 15.34 h -20.55 v 191.24 h 20.55 v 15.34 h -20.55 v 191.24 h 20.55 v 15.35 h -20.55 v 191.24 h 20.55 v 15.34 h -20.55 v 191.24 h 20.55 v 15.34 h -20.55 v 197.92 h 35.19 v 15.39 h 17.91 v 41.96 h -334.26 v 46.66 h 10.88 v 13.48 h -181.99 v -13.48 h 10.87 v -46.66 h -82.84 v -41.96 h 17.91 v -15.39 h 35.2 v -197.92 h -20.55 v -15.34 h 20.55 V 3577.2 h -20.55 v -15.34 h 20.55 v -191.24 h -20.55 v -15.35 h 20.55 v -191.24 h -20.55 v -15.34 h 20.55 v -191.24 h -20.55 v -15.34 h 20.55 v -191.24 h -20.55 v -15.34 h 20.55 v -156.27 h -114.09 v 603.88 h -459.07 v -439.31 h -74.53 v 1368.54 h -55.14 v -35.23 l -101.75,-24.89 v 22.88 h -55.14 v -36.37 l -101.76,-24.88 v 26.23 h -55.14 v -39.72 L 4837.6,3975.5 v 21.64 h -55.14 v -35.13 l -101.75,-24.89 v 18.65 h -55.14 V 2611.84 h -77.58 v 716.48 h -287.34 v -440.59 h -294.57 v 375.72 h -36.29 v 123.39 h 21.54 v 12.39 h -95.32 v 38.8 h -10.17 v -38.8 h -30.49 v 199.15 h -7.62 v -199.15 h -39.71 v -12.39 h 23.36 v -123.39 h -194.41 v -286.6 h -189.26 l -98.85,-365.01 h -198.33 v 1191.74 h -262.59 v 42.69 h 14.92 v 14.98 h -198.89 v -14.98 h 15.64 v -42.69 -68.66 -816.19 h -123.82 v 308.38 h 44.01 v 27.92 h -311.55 v 186.3 h -59.43 v 38.28 h -132.66 v -38.28 h -107.95 v -665.22 h -354.13 v 493.37 H 1335.89 V 2879.79 H 1077.12 V 2630.47 H 890.535 v 313.44 H 645.168 V 2676.67 H 423.012 v -189.16 h 222.156 75.082 122.656 47.629 186.585 258.77 86.96 46.56 164.67 354.13 107.95 132.66 59.43 232.42 35.12 123.82 207.64 102.29 120.99 486.44 112.34 189.64 67.13 299.6 80.5 279.39 27.56 27.58 101.75 55.14 101.76 46.09 9.05 101.76 55.14 87.47 14.28 27.57 27.57 74.53 379.45 54.2 25.42 114.09 200.85 183.86 86.42 134.04 332.9 352.01 3.68 248.97 139.21 85.18 53.79 416.64 74.61 89.21 80.1 297.29 221.05 45.26 81.3 494.63 v 180.08 h -302.94"
             style="fill:url(#linearGradient207);fill-opacity:1;fill-rule:nonzero;stroke:none"
             id="path209" />
        </g>
      </g>
    </g>
  </g>
</svg>
